<?xml version="1.0" encoding="UTF-8"?>
<svg id="Capa_1" data-name="Capa 1" xmlns="http://www.w3.org/2000/svg" viewBox="0 0 309.9 332.91">
  <path d="M247.51-.06c-.84,.33-1.45,3.41-1.47,7.25,0,3.57,.61,5.47,1.76,5.47,.35,0,.51,.14,.57,.45,.27,1.45,.53,3.53,.53,4.14,0,1.02,.55,2.25,1.14,2.57,.69,.37,.98,.92,1.02,1.92,0,.45,.22,1.35,.47,2,.39,1,.55,1.2,1.06,1.31,.69,.14,1.45,1.08,1.41,1.76-.06,.73-.02,.84,.55,1.45,.51,.57,.55,.57,.84,.2s.29-.37,.18,.08c-.14,.61,.02,1.06,.39,1.06,.16,0,.29,.2,.29,.45,0,.65,.22,.94,1.12,1.39s2.53,.55,2.92,.16c.29-.29,.35-4.63,.06-5.59-.1-.37-.61-1.18-1.14-1.82-.9-1.1-.94-1.24-.82-2.04,.06-.47-.02-1.82-.2-2.98-.18-1.31-.27-2.63-.18-3.45,.16-1.8-.18-3.2-1-4.04-.35-.35-.8-.65-1-.65-.33,0-.37-.2-.35-2.31,.04-2.49-.35-3.82-1.06-3.82-.41,0-1-.73-1-1.24,0-.55-.98-1.57-1.65-1.71-.47-.1-.63-.29-.73-.76-.16-.86-1.1-1.39-2.41-1.37-.55,0-1.14,.06-1.29,.12Zm9.35,14.35c0,.41,.14,.67,.43,.84,.31,.16,.37,.29,.2,.45s-.37,.08-.73-.27c-.51-.47-.61-.9-.39-1.51,.18-.49,.49-.18,.49,.49Z"/>
  <path d="M176.3,.31c-.06,.18,.06,.53,.27,.78,1.59,1.92,2.63,2.73,4.02,3.18,.82,.27,1.37,1.04,1.37,1.92,0,.24,.1,.57,.24,.71,.18,.18,.14,.33-.14,.65-.2,.22-.41,.84-.47,1.43-.04,.55-.22,1.12-.37,1.24-.16,.12-.29,.45-.29,.71,0,.35-.31,.71-1.02,1.24-.98,.73-1.02,.8-1.02,1.73,0,1-.14,1.16-.57,.73-.2-.2-.37-.14-.76,.24-.37,.39-.51,.82-.59,1.67-.12,1.43-.73,2.9-1.35,3.22-.24,.14-1.06,.88-1.82,1.63-1.27,1.31-1.37,1.49-1.73,3-.35,1.45-.49,1.76-1.49,2.84-.61,.65-1.24,1.51-1.39,1.88-.16,.37-.43,.71-.61,.78-.16,.06-.31,.24-.31,.41,0,.14-.24,.51-.53,.84-.37,.39-.47,.69-.39,1.02,.08,.37,.02,.47-.31,.47-.35,0-.41,.14-.41,1.02s-.06,1.02-.35,1.02c-.35,0-1.9,1.69-1.9,2.06,0,.08,.16,.24,.35,.37,.33,.18,.33,.22,.02,.57-.18,.2-.37,.73-.41,1.18q-.06,.82-1.06,.94c-1.24,.14-1.61,.57-1.49,1.76,.06,.59,0,.94-.18,1.1-.16,.12-.39,.59-.51,1.02-.18,.55-.41,.84-.82,.98-.82,.29-1.04,.86-.88,2.25,.12,1.1,.08,1.27-.43,1.94-.31,.41-.65,.73-.8,.73-.65,.02-.8,.41-.86,2.08-.06,2.31-.24,2.73-1.29,2.92s-1.67,.9-1.65,1.92c.04,1.2-.59,2.69-1.22,2.9-.76,.27-1.22,1.18-1.22,2.41,0,.57-.08,1.2-.18,1.41-.22,.39-.78,2.04-1.04,3.06-.08,.37-.29,.82-.45,1-.14,.18-.41,.69-.57,1.16-.29,.73-.39,.84-1.02,.86-.96,.06-1.63,.9-1.59,2.02,.04,.8-.33,2.51-.67,3.2-.1,.2-.12,.76-.06,1.24,.14,1.02-.18,1.45-.63,.84-.35-.49-.67-.18-.35,.33,.35,.55,.31,.76-.14,.88-.29,.06-.43,.35-.55,1.06-.22,1.61-.96,3.27-1.45,3.33-.71,.1-.98,.63-1.02,1.96-.02,1.33-.35,2.73-.8,3.63-.16,.29-.29,.65-.29,.82-.02,.14-.51,.8-1.12,1.45q-1.1,1.2-3.1,1.31c-1.94,.1-2.02,.1-2.49-.41-.51-.55-.51-1.12-.06-2.9,.12-.45,.27-1.06,.35-1.39,.08-.45,.22-.55,.69-.55,.53,0,.63-.12,1.02-1.18,.39-1.04,.51-2.2,.43-4.41-.02-.49,.1-.61,.51-.47,.16,.08,.31,.33,.31,.55,0,.71,.41,.45,.84-.55,.29-.67,.41-1.37,.39-2.31-.04-2.41,.55-4.08,1.47-4.08,.43,0,1.1-1.22,.92-1.69-.2-.51-1.1-.18-1.35,.51-.2,.55-.27,.59-1.18,.53q-.98-.06-.98-.78t1.08-.69c.73,.02,1.06-.04,1.06-.22,0-.86,2.22-4.43,2.98-4.78,.57-.27,.9-.94,1.1-2.37,.33-2.1,.59-2.76,1.12-2.76,.59,0,1.12-.69,1.12-1.49,0-.45-.08-.57-.33-.47-.18,.06-.37,.12-.41,.12s-.22,.37-.41,.82c-.33,.8-.35,.82-.71,.49-.24-.22-.39-.63-.39-1.08,0-.41-.18-1.39-.41-2.16s-.41-1.61-.41-1.86c0-.22-.24-.63-.53-.92q-.55-.49-.41,.08c.08,.31-.02,1.31-.2,2.2s-.29,1.82-.22,2.04-.02,.8-.18,1.24-.29,1.33-.29,1.92-.08,1.1-.2,1.1c-.1,0-.2-.37-.2-.82,0-.57-.08-.82-.29-.82-.49,0-.94,.86-.94,1.8,0,1.37-.61,2.92-1.22,3.12-.59,.22-1.24,1.57-1.08,2.22,.06,.22,0,.65-.12,.98-.29,.71-.65,2.92-.69,4.2-.04,1.04-.55,1.65-.55,.65,0-.82-.37-.82-.8,.04-.29,.57-.37,1.02-.29,1.63,.08,.65,.02,.96-.24,1.27-.24,.27-.39,.86-.47,1.82-.08,1.35-.14,1.47-.88,2.16-.43,.41-.84,.98-.9,1.29s-.2,.88-.31,1.29c-.12,.41-.2,.96-.2,1.24,0,.31-.29,.82-.73,1.27-.63,.65-.71,.84-.61,1.45,.1,.49,.06,.73-.16,.86-.37,.2-.94,2.82-.94,4.27,0,.71,.16,1.37,.57,2.14,.53,1.08,.57,1.1,1.57,1.22,1.29,.14,2.06,.47,2.33,.96,.24,.45,2.57,1.02,5.22,1.29,2.12,.2,9.69,.22,9.71,.02,0-.08,.04-.51,.1-.96,.04-.45,.12-1.51,.16-2.35s.1-1.65,.1-1.8c.02-.35,.45-.31,.73,.1,.2,.27,.33,.31,.55,.12,.37-.31,.84-1.98,.69-2.45-.06-.2-.02-.69,.1-1.08s.29-1.35,.37-2.14c.12-1.39,.14-1.43,.73-1.53,.82-.14,1.12-.84,1.35-3.12,.41-4.12,.37-3.98,1.2-4.65,.88-.71,1.55-2.45,1.35-3.45-.14-.78,.59-2.59,1.35-3.31,.31-.31,.57-.67,.57-.84s.14-.57,.31-.88c.16-.33,.31-.78,.31-1.02,0-.76,.65-2.33,1.04-2.55,.2-.1,.39-.37,.39-.57s.14-.71,.33-1.14c.18-.45,.27-1,.18-1.33s-.02-.78,.1-1.02,.22-.73,.22-1.08c0-.37,.16-1.18,.35-1.84,.27-.98,.39-1.16,.78-1.16,.67,0,1.1-.76,1.1-1.88,0-1.06,.53-2.1,1.65-3.31,.35-.35,.88-1.24,1.18-2,.53-1.22,.55-1.45,.39-2.39-.24-1.18-.08-2.06,.37-2.06,.24,0,.29,.14,.16,.69-.18,1.02,.06,1.27,.65,.71,.27-.24,.49-.57,.49-.71,0-.16,.22-.8,.51-1.43,.45-1,.49-1.27,.31-1.94-.22-.8-.1-1.82,.22-1.82,.1,0,.18,.33,.18,.71,0,.88,.24,.9,.8,.12,.31-.43,.43-.92,.43-1.69,0-.86,.1-1.2,.41-1.49,.27-.24,.41-.63,.41-1.08,0-.67,.02-.69,.37-.39,.35,.33,.41,.31,.82-.27,.24-.33,.45-.86,.45-1.16,0-.33,.18-.94,.41-1.39s.41-1.04,.41-1.33c0-.43,.1-.53,.47-.53,.35,.02,.47-.1,.51-.53,.04-.29,.2-.65,.37-.78,.16-.14,.29-.41,.29-.59,0-.2,.14-.53,.31-.76,.16-.2,.35-.92,.43-1.57,.12-1.08,.16-1.16,.49-.86,.71,.65,1.49-.92,1.78-3.57,.14-1.41,.18-1.49,.67-1.18,.37,.22,.47,.18,.94-.35,.29-.35,.65-.86,.82-1.16,.39-.76,.57-2.59,.35-3.43-.2-.76-.14-1.22,.16-1.22,.1,0,.18,.33,.18,.71,0,.88,.22,.9,.92,.06,.51-.61,.55-.76,.43-1.84-.1-1.12-.1-1.18,.33-1.12,.31,.02,.47-.08,.53-.37,.04-.22,.41-.71,.78-1.08,1.06-1.04,1.55-2.14,1.59-3.69,.04-1.31,.06-1.35,.65-1.53,1.1-.33,1.2-.43,1.33-1.57,.06-.61,.2-1.33,.29-1.61,.29-.86,.24-2.71-.04-3.41-.33-.71-.73-.88-2.16-.88-1.16,0-2.39-.47-2.39-.92,0-.16-.31-.49-.65-.71-.59-.37-1.04-.41-3.8-.41-2.61,0-3.14,.04-3.25,.31Zm5.12,2.71c-.08,.24-.2,.45-.31,.45-.22,0-.24-.9-.04-1.1,.24-.22,.47,.18,.35,.65Zm2.78,10.57c0,.27-.08,.49-.2,.49-.1,0-.2-.29-.2-.63s.08-.57,.2-.49c.12,.06,.2,.35,.2,.63Zm-21.96,43.72c.14,.24-.1,1.06-.31,1.06-.1,0-.18-.29-.18-.61,0-.57,.27-.82,.49-.45Zm-8.65,3.92c0,.37-.73,.96-.94,.76-.08-.08,.73-1.14,.9-1.16,.02,0,.04,.18,.04,.41Zm6.25,3.8c-.06,.18-.12,.55-.12,.82s-.08,.49-.18,.49c-.29,0-.43-.86-.2-1.27,.24-.45,.69-.49,.51-.04Zm-15.88,18.67c-.06,.51-.47,.73-.61,.35-.06-.14-.02-.49,.08-.76,.22-.61,.63-.31,.53,.41Z"/>
  <path d="M146.96,1.94c-.37,.16-6.31,.57-7.57,.55-1.08-.02-1.31,.04-1.71,.47-.35,.37-.43,.65-.37,1.16,.06,.41-.02,.86-.2,1.12-.27,.41-.27,.53,.04,.96,.45,.69,1.51,.82,4.51,.53,1.35-.12,2.69-.22,3.02-.2,1.41,.08,6.61,.06,6.94-.02s.35,.24,.35,4.82c-.02,2.69-.06,6.33-.1,8.06-.06,1.73-.1,3.8-.1,4.59-.02,1.49-.59,4.8-.86,4.8-.06,0-.16-.2-.2-.47-.12-.9-.47-.31-.47,.84,0,1.06-.2,1.84-.67,2.69-.1,.16-.53,.43-.98,.57-.96,.31-1.82,1.43-1.63,2.14,.1,.45,.06,.47-.86,.47-.84-.02-.96,.04-1.02,.43-.04,.27-.2,.47-.35,.47-.35,0-.57-.69-.41-1.24,.27-.82,.14-1.8-.31-2.53-.39-.63-.41-.8-.2-1.45,.31-.9,.1-3.37-.33-4.2-.2-.37-.45-.57-.78-.57-.35,0-.55-.2-.84-.8-.29-.67-.33-1.1-.2-2.61,.1-1.39,.06-2.1-.2-3.12-.22-.84-.29-1.63-.2-2.18,.18-1.18-.2-2.49-.8-2.71-.27-.1-.88-.55-1.37-1-1.02-.94-1.12-.98-1.65-.51-.29,.29-.43,.29-.65,.08-.2-.14-.55-.18-.94-.1-.76,.16-.82,.78-.16,1.47,.43,.45,1.1,3.39,1.29,5.55,.04,.51,.18,1.35,.31,1.88,.14,.55,.18,1.27,.1,1.61-.12,.53-.08,.65,.29,.76,.45,.12,.59,.59,.2,.71-.29,.1,.02,2.22,.33,2.22,.12-.02,.22-.43,.27-.94,.1-1.39,.45-1.1,.45,.35,0,1.98,.41,6.45,.71,7.82,.16,.73,.22,1.73,.16,2.47-.08,.92-.02,1.39,.22,1.88,.53,1.02,.94,.86,.94-.41,0-1.41,.33-1.04,.49,.55,.2,2,.2,2.14,.16,5.02q-.04,2.78-1.1,2.92c-.59,.08-2.18,.18-3.53,.22s-2.84,.16-3.31,.27-1.65,.16-2.65,.1c-1.98-.1-3.63,.24-3.63,.76,0,.24,.33,.31,1.57,.31,1.47,0,2.02,.14,1.73,.43-.06,.06-1.43,.14-3.04,.18-2.35,.06-13.45,.37-22,.63-.84,.02-3.55,.1-6.02,.16-4.78,.14-6.59,.37-6.78,.88-.2,.51-1.08,.69-4.25,.9-5.65,.37-12.84,.65-14.69,.63-2.37-.06-4.76,.24-5.16,.65-.29,.29-.29,.33,.06,.45,.2,.08,1.02,.06,1.82-.06,1.02-.14,1.49-.14,1.59,.02,.29,.43-.29,.63-1.63,.59-.76-.02-2.88,.04-4.73,.14-7.06,.43-11.84,.65-14.71,.71-3.33,.06-3.92,.18-3.82,.67,.04,.27,.35,.37,1.18,.45,.61,.06,1.1,.18,1.08,.31-.06,.22-2.76,.45-5.98,.49-1.18,.02-2.69,.16-3.37,.33s-1.84,.29-2.57,.31c-1.1,0-1.39,.06-1.51,.35-.12,.35-.14,.35-.41-.02-.35-.45-1.82-.65-2.59-.35-.43,.16-.57,.35-.57,.8,0,.51-.1,.59-.92,.82-.51,.14-1.29,.24-1.73,.24s-1.16,.14-1.57,.31c-.39,.16-.94,.31-1.18,.31s-.57,.14-.71,.31-.43,.31-.63,.31c-.45,0-.45,.06-.18,1q.18,.67-.69,.55c-.69-.1-.98-.06-1.35,.24-.53,.43-.41,.86,.27,.86,.24,0,.92,.2,1.51,.45,1,.41,1.1,.41,1.45,.1,.2-.18,.59-.35,.88-.35,.27,0,.84-.1,1.29-.22,.8-.22,.98-.14,1.2,.53,.1,.29,2.96,.12,3.76-.2,.45-.18,.67-.43,.67-.69,0-.22,.1-.47,.22-.53,.33-.2,2.92-.53,4.67-.61,.84-.02,2.06-.16,2.71-.31,.82-.18,1.31-.2,1.63-.06,.59,.27,6.02,0,6.63-.33,.92-.49,.39-.73-1.76-.8-1.14-.02-2.08-.12-2.08-.22,0-.33,9.25-.73,14.59-.65,1.69,.04,4.2-.06,5.61-.18,1.41-.14,4.53-.27,6.94-.29,4.82-.04,5.78-.22,5.67-1.02-.06-.37,.08-.45,.86-.57,.51-.06,2.49-.14,4.39-.14,1.92-.02,4.71-.1,6.22-.22,1.51-.1,5.65-.24,9.18-.31,12.02-.22,14.18-.29,14.8-.47,.35-.1,.71-.41,.88-.71,.18-.37,.47-.57,.92-.65,1.04-.18,7.53-.47,8.31-.37,.39,.04,2.73-.04,5.2-.22,3.43-.22,5.27-.24,7.71-.1,2.43,.16,3.31,.14,3.53-.04,.33-.27,1.9-.1,2.41,.29,.2,.14,.41,.69,.49,1.27,.12,.92,.2,1.02,.71,1.08,.43,.06,.59-.04,.76-.45,.1-.29,.33-.53,.49-.53,.14,0,.41-.2,.59-.47,.22-.33,.37-.39,.53-.22,.18,.16,.14,.39-.12,.86-.41,.69-.31,.96,.31,.78,.43-.14,.82-.86,1.08-1.96,.08-.39,.31-1.27,.47-1.94,.18-.67,.33-1.57,.33-2,0-.53,.08-.76,.24-.71,.16,.06,.24,.39,.2,.84-.04,.47,.02,.76,.16,.76,.27,0,1.02-1.59,.9-1.94-.06-.12,.04-.57,.22-.98,.16-.41,.31-1.06,.31-1.47,0-1.04,.51-2.1,1.12-2.39,.88-.39,1.35-1.39,1.41-3.06,.1-1.9,.22-2.2,.92-2.2,.35,0,.76-.2,1.06-.53,.43-.47,.49-.69,.51-2.55,.02-2.08,.24-2.76,.73-2.27,.45,.45,.9,.24,1.37-.59,.35-.61,.41-.9,.24-1.06-.57-.57,.04-2.29,1.16-3.33,.71-.65,.76-.76,.76-1.96,.02-.71,.12-1.47,.24-1.69,.1-.22,.27-.92,.33-1.53,.12-1.35,.49-2.2,.96-2.35,.39-.12,.69-.73,1-2.04,.1-.45,.33-1.18,.51-1.63,.16-.45,.31-1.16,.33-1.59,0-.41,.1-.76,.2-.76,.12,0,.2,.18,.2,.39,0,.69,.39,.67,.82-.02,.27-.43,.39-.9,.35-1.29-.06-.37,.02-.76,.22-.98,.18-.2,.41-.84,.49-1.43,.1-.59,.22-1.37,.31-1.73,.06-.39,.27-.73,.45-.8,.55-.2,1.22-1.14,1.24-1.73,0-.31,.18-.88,.41-1.29s.41-1.08,.41-1.53c0-.67,.06-.82,.39-.82,.49,0,.76-.73,.43-1.12s-.63-.39-2,.04c-.9,.29-1.16,.49-1.39,.98-.22,.53-.35,.59-.96,.55-.61-.06-.76,.02-1.16,.67-.39,.61-.45,.92-.35,1.78,.16,1.31-.06,1.73-1.2,2.25-.92,.39-1.41,1.08-1.27,1.78,.1,.45,.8,.31,1.22-.24,.31-.39,.37-.41,.47-.1,.08,.18,.04,.51-.08,.76-.12,.22-.22,.59-.22,.82,0,.24-.14,.43-.31,.43s-.35,.22-.43,.51c-.06,.29-.27,.59-.43,.69-.16,.08-.47,.65-.65,1.27-.35,1.04-.41,1.1-1.06,1.1-.59,0-.73-.1-1.04-.71-.35-.73-.78-5.2-.78-8.22,0-.84-.14-1.96-.31-2.51s-.31-1.29-.31-1.63c0-.8-.29-1.04-1.37-1.22-.61-.1-.98-.04-1.31,.2-.65,.45-1.47,.41-1.92-.08-.35-.37-.61-.41-3.25-.39-1.59,0-2.96,.04-3.08,.08Zm-.35,3.1c.04,.18-.14,.27-.55,.27-.43,0-.63-.1-.63-.33,0-.39,1.04-.33,1.18,.06Zm4.53,.04c0,.31-.31,.43-.78,.29-.65-.16-.55-.47,.16-.47,.35,0,.61,.08,.61,.18Zm2.45,2.86c0,.45-.08,.86-.18,.92-.18,.12-.47-1.27-.31-1.55,.24-.41,.49-.1,.49,.63Zm3.76,5.49c.14,1.18,.02,1.88-.29,1.88-.08,0-.2-.18-.27-.43-.14-.53,.08-2.63,.27-2.63,.08,0,.2,.53,.29,1.18Zm-3.76,.57c0,.49-.08,.69-.24,.63-.14-.04-.27-.18-.24-.31,.02-.14,.04-.49,.06-.78,.04-.78,.43-.37,.43,.45Zm5,2.12c.08,.12-.14,.2-.49,.2s-.63-.1-.63-.2c0-.12,.22-.2,.49-.2,.29,0,.57,.08,.63,.2Zm-16.02,11.96c0,1.08-.06,1.31-.33,1.31-.29,0-.33-.16-.2-1.08,.06-.57,.12-1.22,.12-1.43s.1-.31,.2-.24c.12,.06,.2,.71,.2,1.45Zm17.1-.08c-.04,.27-.14,.47-.27,.47-.1,0-.22-.2-.27-.47-.04-.31,.04-.45,.27-.45s.31,.14,.27,.45Zm-61.29,23q.39,.16,0,.37c-.47,.24-3.78,.1-3.78-.16,0-.08,.67-.2,1.49-.24,.8-.02,1.57-.08,1.67-.08,.12-.02,.39,.04,.61,.12Zm39.29,1.43c0,.22-.98,.49-1.22,.33-.43-.27-.16-.51,.51-.51,.39,0,.71,.08,.71,.18Zm-24.18,2.27c.73,0,.94,.06,.69,.2-.39,.22-4.02,.33-4.22,.12-.29-.31,.53-.55,1.49-.45,.57,.06,1.49,.12,2.04,.12Zm-35.31,2.43c.63,.24-.61,.41-3.33,.45-2.29,.04-2.86-.08-2.29-.43,.37-.24,5.04-.24,5.61-.02Zm-42.96,1.45c0,.1-.45,.2-1.02,.2s-1.02-.1-1.02-.2c0-.12,.47-.2,1.02-.2s1.02,.08,1.02,.2Zm-3.2,3.39c1.12,.2,.92,.49-.37,.49-1.04,0-1.33-.14-.98-.47,.16-.16,.35-.18,1.35-.02Z"/>
  <path d="M300.94,27.65c-.39,.14-1.04,.29-1.43,.29-.82,.02-1.1,.18-1.29,.71-.14,.37-.16,.37-.53,.02-.61-.55-1.16-.33-1.08,.47,.02,.47-.04,.65-.27,.65-.16,0-.31-.1-.31-.2,0-.12-.14-.2-.35-.2-.37,0-2.1,1.8-2.1,2.18,0,.12-.53,.53-1.16,.9-1.1,.63-1.61,.98-2.18,1.53-.35,.33-1.1,.71-1.59,.8-1.18,.24-4.04,2.29-4.04,2.9,0,.12-.12,.27-.29,.33-.31,.12-.94,1.9-.94,2.65,0,.29,.14,.61,.31,.76,.43,.35,.16,.65-.35,.39-.35-.18-.39-.37-.31-1.04,.12-.88-.12-1.12-.94-.9-.51,.14-1.16,1.39-1.16,2.22,0,.57,.84,1.69,1.41,1.88,.49,.14,1.8-.43,2.63-1.14,.47-.43,.88-.59,1.43-.59,.41,0,1.16-.18,1.65-.41s1.12-.41,1.43-.41c.37,0,.8-.29,1.41-.92,.47-.51,1.02-.92,1.22-.92s.49-.12,.63-.27,.76-.24,1.41-.24c1.12,0,1.16-.02,1.22-.57,.08-.63,.39-.71,.78-.2,.27,.33,.31,.35,.55,.04,.12-.18,.45-.39,.71-.47,.51-.16,.55-.35,.2-.69-.57-.57,.8-.86,2-.41,.78,.27,1.43-.04,3.51-1.76,2.69-2.18,3.94-3.57,4.39-4.88s.22-1.84-.92-2.25c-1.27-.45-4.76-.61-5.67-.24Zm-.04,8.41c-.08,.43-.39,.53-.78,.27-.27-.18-.27-.22,0-.41,.47-.31,.86-.24,.78,.14Z"/>
  <path d="M182.88,47.47c-1.35,.16-2.59,.35-2.76,.41-.16,.08-1.37,.14-2.65,.16-2.1,.02-2.41,.06-3,.49-.37,.27-.67,.59-.67,.76,0,.14-.33,.47-.73,.69-.47,.29-.69,.55-.65,.78,.06,.33,.39,.47,1.86,.78,.45,.08,.67,.33,.9,.92,.39,.98,1.04,1.1,1.63,.31,.24-.35,.67-.57,1.39-.71,1.22-.22,27.86-.12,28.78,.12q.61,.16,.1,.31c-.29,.08-2.33,.14-4.53,.16s-4.06,.1-4.12,.2c-.49,.8,2.35,1.04,11.2,1.02,4.04-.02,9.29,.08,11.63,.2,4,.22,8.67,.35,17.92,.51,2.12,.04,3.9,.14,3.96,.2,.33,.31-.35,.43-2.43,.43-1.51,0-2.29,.08-2.35,.22-.16,.49,1.27,.78,4.12,.84,2.82,.04,5.04,.12,10.94,.39,2.12,.1,3.18,.08,3.67-.1,.39-.14,1.16-.29,1.71-.35,1.57-.12,1.94-.27,1.94-.65,0-.49-.76-1.18-1.49-1.35-.41-.1-.59-.29-.69-.73-.12-.67-.27-.82-.94-.92-1.49-.22-6.25-.8-8.86-1.04-.9-.1-1.08-.18-1.08-.51,0-.8-1.14-1.02-5.49-1.08-2.2-.04-5.88-.18-8.16-.33s-4.71-.2-5.41-.16c-1.31,.1-6.47-.33-6.9-.57-.14-.08-.45-.31-.67-.49-.71-.63-5.02-.86-17.76-.94-6.51-.04-13.2-.12-14.9-.16-1.98-.06-3.92,0-5.51,.2Zm18.02,1.1c4.12,0,3.04,.35-1.39,.45-3.88,.08-4.49,.06-4.49-.24,0-.24,1.12-.39,2.22-.29,.49,.04,2.14,.08,3.65,.08Zm-22.25,.45c.06,.29-.06,.37-.55,.37-.69,0-1.04-.37-.61-.63,.43-.29,1.08-.12,1.16,.27Zm65.21,1.59c.1,.37,.29,.41,1.53,.41,1.71,0,2.14,.33,.59,.45-1.71,.12-2.98-.31-2.73-.94,.18-.45,.49-.41,.61,.08Z"/>
  <path d="M264,67.25c-.16,.2-.22,.69-.14,1.49,.06,.63,.04,1.9-.04,2.8-.14,1.51-.16,1.59-.39,1.06-.31-.71-.61-.63-1.08,.29-.33,.63-.37,1.65-.43,11-.06,10.25-.06,10.31,.39,11.02,.39,.65,.45,1.16,.65,5.92,.12,2.86,.29,17.23,.35,31.94,.16,31.35,.16,25.72,.06,54.59-.04,12.74-.02,23.53,.06,23.98s.04,2.69-.06,5c-.12,2.33-.22,17.27-.24,33.61-.02,16.18-.1,29.49-.18,29.57-.1,.08-.22,.08-.31,0s-.12-5.04-.1-11.04c.04-9.37,0-10.92-.24-10.92-.16,0-.35,.24-.41,.57-.53,2.59-.98,24.1-.53,25.45,.18,.55,.18,1.04-.02,2.18-.37,2.06-.39,15.59-.04,16.06,.14,.18,.27,.86,.27,1.49s.1,1.22,.22,1.29c.1,.08,.47,.02,.82-.1,.47-.2,.65-.2,.9,0,.16,.14,.51,.2,.76,.14,1.06-.27,1.59-2.29,1.59-6.04,.02-2.78,.2-3.76,.86-4.45,.47-.49,.47-.59,.61-6.35,.22-9.31,.39-19.29,.73-45.86,.27-20.98,.08-118.58-.27-133.27-.06-3.04-.16-8.27-.22-11.63-.41-23.53-.31-21.59-1.14-22.53-.43-.45-.78-.9-.78-1-.22-4.61-.37-5.98-.65-6.31-.29-.35-.67-.33-.98,.04Zm2.65,20.43c0,1.53-.2,2.18-.45,1.45-.16-.45,.08-3.41,.27-3.29,.1,.06,.18,.88,.18,1.84Zm0,197.42c0,.8-.08,1.47-.18,1.53-.18,.12-.45-2.22-.29-2.65,.27-.69,.47-.18,.47,1.12Z"/>
  <path d="M185.73,69.62c-3.69,.1-7.33,.12-8.06,.06-1.47-.12-6.2,.22-7.41,.55-.45,.12-.76,.31-.69,.45,.14,.43,1.69,.71,5.18,.94,4.65,.31,5.78,.49,6.02,.9,.33,.61,1.24,.92,2.92,.96,2.16,.06,2.14,.08,2.14-.53,0-.33,.1-.49,.27-.43,.12,.04,.24,.27,.24,.49,0,.24,.08,.51,.16,.59,.57,.59,14.04,.9,21.04,.49,2.31-.14,3.35-.12,3.53,.02,.43,.37,.08,.59-.94,.59-1.14,0-1.59,.35-1.27,.98,.33,.61,2.61,.9,6.8,.88,2.02-.02,4.33-.12,5.12-.24,1.47-.22,3.55-.08,7.29,.55,1.51,.27,1.82,.39,2.47,1.02q.76,.73,2.67,.71c1.71,0,1.94-.04,2.27-.47,.2-.27,.49-.61,.65-.8,.14-.2,.67-.41,1.16-.49,1.18-.2,2.98-1.06,3.25-1.55,.27-.51-.14-2.55-.55-2.71-.14-.06-.53-.02-.86,.06-.35,.1-1.18,.06-2.1-.1-.84-.14-3.98-.35-6.98-.45-3.63-.12-5.55-.27-5.69-.41-.18-.18-.08-.24,.39-.24,.88,0,1-.31,.37-.94-.49-.47-.63-.51-1.59-.39-1.43,.16-2.18,.16-7.18-.08-13.59-.67-17.33-.71-30.61-.41Zm-.43,2.14c.73,.29,.22,.49-1.2,.49-1.59,0-2.12-.33-.76-.47,1.39-.14,1.63-.14,1.96-.02Zm27.18,3.67c-.1,.27-.2,.29-.37,.12-.12-.12-.16-.37-.08-.57,.1-.27,.2-.29,.37-.12,.12,.12,.16,.37,.08,.57Z"/>
  <path d="M104.71,69.72c-6.18,.1-14.39,.47-16.27,.73-1.59,.2-1.82,.2-2.16-.1-.31-.27-.78-.35-2.2-.35-1.82,0-2.71,.22-2.02,.49,.18,.06,1.02,.12,1.86,.12s1.51,.08,1.51,.2c0,.33-1.37,.47-3.04,.33-1.1-.1-2.16-.04-3.43,.18-3.27,.55-4.98,.73-8.94,.92-2.12,.1-4.84,.33-6,.49-1.86,.27-2.25,.27-2.96,0-.47-.14-1.1-.29-1.45-.29-.63,0-1.94,.67-1.94,1,0,.22,.51,.43,1.14,.43,.27,0,.49,.08,.49,.16,0,.1-1.08,.29-2.39,.43-1.33,.12-3.14,.33-4.04,.45-1.76,.24-1.9,.24-3.51,.06-.9-.1-1.14-.04-1.69,.37-.37,.24-.73,.65-.82,.88-.16,.43-1.55,.92-2.61,.92-.59,0-1.59,.53-2.29,1.22-.22,.22-.63,.41-.92,.41-.47,0-.61,.2-.53,.69,.08,.43-.2,1.12-.73,1.69-.45,.49-.67,.59-.98,.47q-.41-.16,0-.31c.22-.08,.53-.18,.67-.22,.35-.1,.31-1-.04-1.29-.22-.2-.43-.18-.92,.08-.67,.35-.94,1-.78,1.9,.06,.31,0,.67-.16,.86-.14,.16-.35,.63-.45,1.02-.14,.57-.31,.73-.8,.82-.57,.1-.59,.16-.84,1.73-.12,.9-.33,2.08-.45,2.61-.22,.94-.61,7.08-.55,8.82,.04,1.2-.37,1.2-.45,0-.02-.57-.1-1.16-.16-1.33-.08-.27-.12-.27-.29,0-.29,.43-.24,2.39,.04,2.86,.2,.31,.18,.45-.08,.76s-.35,.9-.39,3.02c-.02,1.47-.16,4.67-.33,7.14-.22,3.55-.27,7.49-.16,18.78,.2,23.1,.37,30.98,.67,31.08s.33,.98,.02,1.18c-.14,.08-.18,1.33-.08,4.04,.14,4.35,.2,4.82,.59,4.82,.35,0,.53,1.31,.53,3.86,0,1.08,.1,2.55,.2,3.29,.18,1.35,.55,12.35,.69,21.23,.04,2.63,.12,4.94,.18,5.1s.16,.57,.22,.88c.08,.33,.33,.63,.61,.76,.55,.2,.73,1.12,.73,3.67,0,.88,.08,2.49,.2,3.59,.18,1.88,.33,6.12,.51,14.06,.06,3.69,.2,4.39,.96,4.76,.63,.31,.69,.57,1,4.73,.37,5.04,.41,5.73,.47,8.98,.04,3.39,.24,4.29,.94,4.29,.24,0,.49,.18,.59,.47,.24,.63,.65,4.84,.51,5.37-.06,.22,.04,1.12,.2,1.98,.18,.86,.33,1.88,.33,2.29,0,.47,.1,.78,.33,.86,.24,.08,.29,.29,.18,.88-.24,1.45,.06,2.57,.96,3.47,1.04,1.04,1.51,1.06,1.78,.06,.18-.67,.16-.82-.18-1.18q-.41-.39,.1-.82c.78-.61,.98-2.22,.82-6.12-.06-1.8-.12-3.98-.1-4.86,.02-1.73-.33-4.51-.65-5.1-.1-.2-.31-.33-.47-.27-.41,.14-.67-1.84-.92-7.22-.12-2.63-.31-5.51-.43-6.37s-.16-1.67-.08-1.8c.22-.35,.12-4.39-.12-5.88-.18-.98-.35-1.37-.71-1.59-.92-.61-1.06-1.86-1.18-10.08-.08-4.8-.41-7.35-.94-7.35-.2,0-.41-.14-.49-.31-.06-.2,.02-.31,.27-.31,.22,0,.43,.12,.49,.24,.27,.78,.37-.47,.35-4.57-.02-5.45-.29-7.71-.92-7.71-.16,0-.41-.2-.53-.45-.31-.59-.63-7.78-.61-13.53,0-2.47-.08-7.25-.22-10.61-.12-3.37-.2-9.53-.18-13.67,.04-7.12-.33-15.63-.71-16.27-.37-.59-.49,.88-.51,6.57,0,6.53-.22,8.69-.47,4.9-.27-3.71-.06-52.51,.2-52.59,.37-.12,.39,.76,.29,8-.08,5.18-.04,6.8,.14,7.04,.41,.45,.67,.02,.88-1.43,.2-1.49,.31-14.02,.12-14.51-.08-.18-.04-.73,.08-1.22s.31-2.86,.41-5.25c.18-4.55,.37-5.39,.96-4.53,.39,.57,.73,.51,1.59-.22,.84-.73,.86-.86,.27-1.18-.43-.2-.41-.22,.22-.16,.88,.1,2.43-.22,3.06-.65,.27-.16,.88-.33,1.33-.35,.76-.04,2.18-.33,2.98-.61,.27-.08,.27-.12,0-.29-.16-.12-.51-.2-.78-.2-.31,0-.45-.1-.39-.27s.65-.24,2-.27c3.61-.04,6.33-.27,7.45-.63,.94-.29,1.22-.31,1.84-.08,.82,.29,2.84,.16,4.53-.31,1.2-.35,1.41-.8,.41-1-.57-.14-.61-.16-.24-.37,.27-.14,3.2-.2,9.06-.16,10.12,.06,12.29-.1,13-.96,.24-.29,.41-.57,.37-.63-.06-.04-.92-.1-1.94-.12-1.08-.02-1.94-.12-2.08-.27-.43-.43,.39-.51,3.53-.39,2.14,.08,3.67,.02,5.14-.18,1.76-.24,2.86-.27,6.96-.06,5.51,.27,11.39,.16,11.84-.2,.18-.14,.59-.18,1.1-.1,1.12,.18,1.84-.04,2.12-.63,.27-.57,1.51-1.2,2.82-1.41,.49-.08,1.02-.24,1.18-.37,.16-.14,.59-.22,.98-.2,.39,.04,.96-.08,1.29-.27,.35-.16,.8-.31,1.04-.31s.51-.2,.65-.51c.12-.29,.41-.51,.63-.51,.65,0,1.76-.63,1.9-1.08,.2-.63-.41-.96-1.78-.96-.98,0-1.22,.08-1.49,.45-.29,.39-.37,.41-.82,.16-.37-.18-1-.22-2.14-.14-.88,.06-1.69,.02-1.8-.08s-.51-.24-.9-.29c-1.14-.14-6.98-.24-10.9-.18Zm-54.8,5.98c0,.22-.51,.43-1.12,.43-.55,0-.86-.33-.47-.47,.45-.18,1.59-.14,1.59,.04Zm11.31,4.29c.14,.22-.45,.47-.71,.31-.1-.06-.18-.18-.18-.31,0-.24,.76-.24,.9,0Zm-22.33,78.33c0,.14-.14,.27-.31,.27-.31,0-.43-.63-.16-.88,.16-.16,.47,.24,.47,.61Zm-4.37,3.35c.06,.12,.06,1.65-.02,3.41-.18,3.94-.47,3.57-.49-.63-.02-2.76,.1-3.43,.51-2.78Zm6,40.04c0,2.67-.06,3.43-.24,3.37-.37-.12-.43-1.41-.27-4.63,.2-3.78,.51-3,.51,1.27Zm-3.61,.2c-.06,1.08-.18,1.98-.27,1.98-.18,0-.39-3.59-.24-4.14,.08-.33,.14-.33,.37-.1,.22,.2,.24,.73,.14,2.27Zm2.45,23.8c.14,.55-.08,3.08-.27,3.08s-.41-2.84-.27-3.2c.14-.39,.41-.33,.53,.12Zm3.57,2.41c-.04,.94-.14,1.71-.27,1.76-.24,.06-.39-2.29-.18-3.53,.12-.84,.14-.88,.33-.43,.1,.29,.14,1.27,.12,2.2Zm-1.14,16.43c.12,.67-.06,2.41-.24,2.41s-.45-2.41-.29-2.67c.18-.33,.45-.2,.53,.27Zm3.59,4.35c-.04,1.06-.14,1.63-.31,1.69-.29,.08-.37-1.49-.12-2.88,.2-1.31,.49-.53,.43,1.18Z"/>
  <path d="M13.32,76.02c-.18,.16-.41,.73-.53,1.29-.18,.88-.73,2-1.69,3.47-.2,.31-.47,.78-.61,1.06s-.63,.98-1.08,1.55c-.76,.98-1.2,1.65-1.9,2.88-.18,.33-.2,.57-.04,.86,.2,.43,.08,1.04-.22,1.04-.1,0-.18-.29-.18-.61,0-.35-.08-.61-.18-.61-.27,0-.98,1.2-1.16,1.94-.14,.61-.55,1.41-1.41,2.76-.82,1.27-1.02,4.47-1.02,16.74s.12,13.47,.96,14.23c.22,.2,.49,.57,.59,.82,.1,.27,.31,.47,.45,.47,.24,0,.33,3.41,.45,22.08,.12,17.51,.24,31.47,.31,33.31,0,.1,.14,.06,.31-.08,.59-.49,.82,.18,.76,2.2-.04,.65-.18,1-.57,1.37q-.53,.49-.33,2.73c.12,1.22,.27,2.35,.35,2.47,.27,.41,.51-.04,.51-.92,0-.49,.06-1.02,.12-1.2,.37-.96,.49,.47,.49,5.65,0,3.16,.1,7.37,.22,9.33s.24,5.08,.27,6.94,.12,4.45,.22,5.76c.16,2.37,.16,2.39,.69,2.45,.49,.06,.53,.14,.51,1,0,.67-.12,1.04-.45,1.37-.24,.24-.45,.55-.45,.67,0,.41,.43,1,.71,1,.14,0,.33,.16,.39,.37,.16,.49,.49,5.41,.73,10.65,.24,5.22,.69,10.76,.96,11.71,.18,.69,.47-.1,.47-1.37,0-.63,.1-1.16,.2-1.16,.12,0,.2,1.24,.2,3.31,.02,1.94,.14,4.1,.31,5.16,.18,1,.39,3.31,.49,5.1,.22,4.08,.57,6.04,1.08,6.18,.29,.06,.37,.31,.37,1.14,.02,.57,.14,1.41,.31,1.86,.39,1.06,.92,4.71,.92,6.35,0,1.18,.04,1.27,.51,1.39,.55,.14,.69,.67,.2,.86-.18,.08-.31,.39-.31,.82,0,.8,.29,.9,.65,.22q.24-.45,.39,.06c.08,.29,.1,1.2,.04,2.06-.06,.9-.02,1.98,.12,2.55,.14,.55,.33,1.73,.43,2.63,.39,3.12,.59,4.39,.84,4.84q.22,.43,.59-.04c.33-.43,.35-.43,.49-.08,.24,.65,.49,4.25,.39,5.63-.06,.82-.02,1.63,.14,2.12,.16,.45,.29,1.96,.31,3.55,.02,2.92,.27,3.98,.94,4.18,.24,.08,.39,.33,.39,.67,.02,.31,.16,1.29,.33,2.18s.35,2.27,.39,3.06c.12,2.04,.57,3.86,.98,3.94,.45,.08,.45,.57,.02,.82-.45,.27-.27,1.73,.29,2.35,.49,.53,1.9,4.59,1.65,4.76-.31,.18-.2,1.04,.14,1.31,.51,.45,.92-.18,1.12-1.82,.1-.82,.27-1.84,.39-2.29,.16-.59,.16-2.06,0-5.14-.35-6.53-.49-8.04-.88-8.47-.24-.27-.29-.43-.12-.59,.29-.29,.14-2.76-.16-2.88-.2-.06-.27,.31-.27,1.41,0,1.18-.04,1.43-.24,1.22-.16-.14-.27-.88-.29-1.92,0-.92-.12-1.94-.24-2.25-.14-.35-.24-1.67-.24-3.27s-.1-3.14-.29-3.78c-.2-.84-.22-1.45-.06-2.8,.12-.94,.14-1.8,.06-1.88-.1-.1-.22-.04-.27,.08-.06,.14-.29,.27-.49,.27-.35,0-.41-.12-.35-.67,.04-.51,.16-.67,.55-.71,.47-.08,.47-.1,.33-1.8-.24-3.08-.73-3.82-.92-1.37-.06,.82-.2,1.39-.35,1.45-.2,.06-.27-.9-.27-4.29-.02-2.39-.1-4.76-.22-5.27-.55-2.43-.76-6.08-.47-9.1,.16-1.92,.02-2.84-.45-2.65-.18,.08-.37-.06-.49-.41-.27-.69-.29-.65,.33-1.2q.53-.49,.29-4.92c-.12-2.43-.33-4.65-.45-4.96-.12-.29-.37-1.16-.55-1.92-.18-.78-.41-1.37-.53-1.33-.27,.08-.47-1.49-.49-3.71-.02-.96-.12-2.33-.22-3.06-.14-.9-.12-2.92,.04-6.22,.24-5.31,.16-6.88-.41-6.8-.22,.04-.37-.14-.47-.55-.27-1.22-.2-1.92,.24-2.33,.43-.41,.43-.49,.31-5.16-.14-5-.24-5.96-.55-5.76-.1,.06-.2,1.82-.2,3.92-.02,2.1-.1,4.08-.18,4.43q-.14,.61-.27-.1c-.27-1.47-.29-2.65-.1-6.84,.2-4.65-.02-13.2-.55-20.72-.16-2.41-.35-7.51-.39-11.33-.06-6.04-.12-7.06-.45-7.84-.27-.69-.31-.98-.12-1.27,.27-.43,.29-1.78,.06-3.35q-.14-1.02-.31,.41c-.2,2.06-.2,2.04-.43,2.04-.41,0-.47-2.08-.14-4.96,.27-2.65,.27-3.04-.02-4.39-.24-1.08-.37-3.25-.47-8.41-.18-7.9-.18-6.76,.02-39.08,.1-17.82,.08-25.23-.1-28.16-.12-2.18-.29-5.22-.35-6.74-.08-2.1-.18-2.8-.41-2.92-.2-.12-.24-.37-.16-.78,.14-.67-.24-.82-.78-.29Zm-7.49,17.67c0,.43-.08,.8-.2,.8-.1,0-.2-.43-.2-.94,0-.55,.08-.88,.2-.8,.12,.06,.2,.49,.2,.94Zm14.98,156.95c.18,.98,.14,5.14-.06,5.47-.2,.31-.22,.24-.55-1.37-.12-.65,.14-4.73,.33-4.73,.08,0,.2,.29,.29,.63Zm-6,7.53c0,.67-.08,1.22-.2,1.22s-.2-.55-.2-1.22,.08-1.22,.2-1.22,.2,.55,.2,1.22Zm7.43,38.41c.14,.61,.14,1.57-.02,2.16-.2,.82-.47,.08-.47-1.35,0-1.27,.24-1.67,.49-.82Zm2.47,14.92c0,.8-.39,.78-.47-.04-.06-.49,0-.65,.2-.59,.14,.06,.27,.35,.27,.63Z"/>
  <path d="M243.08,82.04c-.33,.33-.53,.67-.45,.73,.08,.08-.06,.47-.29,.84-.37,.59-.43,.9-.33,1.9,.1,.88,.04,1.43-.2,2.08-.39,1-.37-.69-.57,30.27-.1,13.12-.06,21.39,.12,27.45,.31,10.47,.35,13.04,.43,27.39q.06,11.14,.63,11.04t.55,1.08c0,1.45-.27,2-.69,1.45-.24-.33-.29-.33-.41-.04-.06,.18-.04,4.2,.08,8.94,.24,10.82,.39,12.96,.84,12.67,.1-.06,.18-3.94,.18-8.9-.02-4.84,.04-8.84,.1-8.9s.16-.04,.24,.04c.16,.16,.2,10.22,.1,24.1-.04,4.71-.02,15.02,.06,22.9,.14,13.33,.12,14.39-.2,14.88-.27,.43-.47,.51-.94,.45-.35-.06-.69,.02-.82,.18-.33,.39-.59,.33-.59-.12,0-.2-.22-.61-.51-.92s-.51-.67-.51-.82-.18-.43-.41-.63-.41-.49-.41-.63-.22-.51-.49-.84-.69-.96-.94-1.43c-.22-.47-.88-1.29-1.41-1.84-.53-.53-1.18-1.35-1.45-1.8-.92-1.59-1.49-2.35-1.76-2.35-.33,0-.39-.63-.08-.94,.14-.14,.16-.39,.02-.76-.24-.65-.63-.73-.63-.14,0,.22-.1,.41-.2,.41-.12,0-.2-.33-.16-.76,.06-.69,.02-.76-.45-.78-.43,0-.51-.12-.65-.86-.16-.98-1.14-2.1-1.82-2.1-.22,0-.45-.16-.51-.37-.06-.18-.24-.63-.39-.96-.16-.35-.29-.92-.27-1.29,.02-.82-.65-1.8-1.16-1.71-.45,.08-.71-.29-.71-1.06,0-.69-1.18-1.96-1.82-1.96-.24,0-.49-.16-.55-.37-.06-.18-.24-.61-.41-.92-.14-.33-.29-.92-.29-1.33,0-.96-.78-1.88-1.61-1.88-.49,0-.63-.12-.92-.88-.18-.47-.33-.96-.33-1.06,0-.12-.73-.98-1.61-1.92-.92-.96-1.65-1.94-1.71-2.27-.08-.35-.53-.9-1.2-1.45-.59-.49-1.24-1.02-1.43-1.2-1.31-1.16-5.2-4.86-6.57-6.22-.98-.98-2.06-1.84-2.67-2.12-.57-.27-1.35-.8-1.73-1.16-1.06-1-2.45-1.35-5.9-1.45-2.33-.08-3.1-.02-3.67,.22-.41,.16-1,.35-1.31,.43-.67,.14-4.61,3.96-5.12,4.98-.18,.35-.43,.63-.53,.63-.29,0-2.02,2.41-2.45,3.39-.2,.47-.51,.9-.69,.96-.18,.08-.33,.33-.33,.57s-.37,.8-.86,1.27c-.69,.67-.86,.98-.88,1.57,0,.57-.08,.73-.45,.78-.61,.08-2.04,1.8-2.18,2.61-.08,.37-.27,.76-.43,.9-.2,.18-.31,.65-.31,1.55,0,1.16-.04,1.31-.41,1.31-.35,0-.41,.14-.41,.96,0,.55-.16,1.31-.37,1.69-.31,.61-.49,.73-1.39,.92-1.24,.24-1.67,.55-1.76,1.29-.1,.94-1.59,.8-1.59-.16,0-.18-.18-.55-.39-.8-.22-.27-.47-.76-.55-1.1-.16-.73-.96-1.8-1.53-2.02-.22-.08-.39-.31-.39-.51,0-.76-1-2.47-2.02-3.43-.73-.71-1.04-1.18-1.04-1.55,0-.65-.69-1.57-1.35-1.82-.33-.12-.49-.35-.49-.65,0-.63-1.65-3.84-1.98-3.84-.16,0-.27,.27-.27,.71,0,.39-.06,.71-.16,.71-.27,0-.63-1.49-.45-1.86,.14-.24,.08-.45-.2-.69-.22-.2-.49-.67-.61-1.04-.14-.39-.33-.69-.41-.69-.61,0-1.55-1.69-1.59-2.84-.02-.8-.86-1.63-1.63-1.65-.27,0-.51-.16-.57-.37-.22-.76-1.14-2.49-1.31-2.49-.35,0-.82-.65-1.04-1.49-.12-.47-.37-1.02-.53-1.2s-.24-.45-.16-.57-.06-.47-.33-.73c-.39-.41-.65-.51-1.31-.45-.8,.06-.82,.04-.76-.57,.04-.39-.06-.73-.27-.9-.16-.14-.31-.37-.31-.53,0-.41-.39-.55-.71-.29-.16,.14-.31,.18-.33,.08,0-.1-.04-.39-.06-.63-.04-.39-.65-1.2-1.84-2.45-.88-.92-1.49-1.63-2.49-2.82-.55-.67-2.39-2.65-4.1-4.39-3.06-3.14-5.16-5.51-5.16-5.84,0-.1-.27-.47-.61-.84-.71-.76-2.22-1.39-3-1.22-.65,.12-2.71-.96-2.86-1.51-.12-.45-1.08-.8-2.12-.8-.43,0-1.02-.1-1.35-.22-.31-.12-1.39-.22-2.41-.22-2.37,0-3.51,.45-3.86,1.47-.2,.65-.31,.71-1.22,.86-.55,.08-1.1,.24-1.2,.35-.12,.12-.37,.22-.53,.22-.18,0-.88,.37-1.55,.82-.76,.51-1.45,.82-1.84,.82-.35,0-.82,.14-1.04,.31-.2,.16-.71,.31-1.1,.31-.8,0-1.84,.8-1.84,1.39,0,.47-.39,.86-.88,.86-.65,0-1.57,1.1-1.57,1.9s-.24,.98-1.14,.8c-.53-.1-.57-.08-.31,.24,.39,.47,0,.94-.47,.55-.43-.35-.65,.49-.31,1.12,.2,.41,.2,.55,0,.76-.2,.18-.29,.16-.45-.12-.12-.18-.39-.35-.61-.35-.57,0-1.61,1.08-1.61,1.67,0,.29-.27,.67-.69,1.02-.39,.33-.84,.8-.98,1.06-.14,.29-.49,.92-.73,1.43-.27,.51-.55,.94-.65,.94-.08,0-.27,.31-.43,.65-.14,.37-.43,.9-.63,1.16s-.37,.63-.37,.82c0,.47-.96,1.45-1.43,1.45-.53,0-1.39,.96-1.63,1.82-.1,.39-.47,1.04-.82,1.47-.33,.43-.61,.86-.61,.98,0,.35-1.24,1.24-1.71,1.24-.76,0-1.35,.82-1.35,1.86,0,1.22-.55,2.27-1.33,2.47-.61,.16-1.53,1.41-1.53,2.08,0,.18-.31,.45-.65,.61-.92,.37-3.22,3.06-3.22,3.73,0,.14,.24,.27,.57,.31,.31,.04,.51,.14,.45,.27-.1,.22-.45,.22-1.16,0-.33-.1-.47-.04-.57,.33-.08,.24-.55,.94-1.04,1.55s-.9,1.24-.9,1.43c0,.43-1.45,2.31-1.78,2.31-.43,0-1.08,1.53-1.08,2.55,0,1.12-.45,1.86-1.35,2.25-.8,.33-1.51,1.37-1.51,2.18,0,.49-.08,.57-.55,.57-.82,0-1.49,.8-1.49,1.73,0,.57-.1,.78-.39,.86s-.41,.35-.47,1.1c-.06,.59-.29,1.27-.55,1.61-.22,.33-.43,.71-.43,.88,0,.45-.45,.76-1.14,.76-.96,0-1.24,.16-1.73,.94-.33,.53-.39,.88-.31,1.41,.12,.63,.08,.71-.29,.71-.39,0-.43,.1-.37,.86,.06,.84,.04,.88-.47,.82-.45-.04-.63,.1-1.1,.9-.39,.63-.53,1.12-.47,1.55,.06,.35-.02,.96-.16,1.37-.22,.63-.35,.73-.82,.69-.65-.06-1.31,.45-1.31,1,0,.2-.18,.55-.41,.78s-.41,.59-.41,.82c0,.2-.2,.51-.45,.63-1.41,.76-2.04,2.29-1.16,2.86,.43,.29,.41,.29-.27,1.35-.37,.59-.78,1.08-.9,1.08s-.47,.18-.76,.41-.65,.41-.84,.41c-.63,0-.98,.92-.92,2.39,.08,1.2,.04,1.39-.29,1.45-.29,.06-.35-.02-.24-.43,.18-.69-.24-.9-.55-.27-.16,.41-.16,.65,.02,1.06,.29,.65,.12,.96-.39,.69-.37-.18-.41-.12-.53,.59-.08,.51-.39,1.1-.82,1.59-.63,.71-.69,.9-.69,2.08,0,.71-.14,1.71-.31,2.25-.16,.51-.35,1.2-.41,1.51-.08,.35-.35,.71-.71,.92-.88,.51-1.1,1.12-.8,2.33,.37,1.37,.86,1.65,3.25,1.84,5.9,.45,13.25,.57,24.7,.47,6.78-.08,15.61-.12,19.65-.12,5.9-.02,7.53-.06,8.37-.33,.59-.16,1.57-.41,2.2-.53,1.06-.2,1.2-.18,1.73,.24,.59,.47,.61,.47,5.08,.35,5-.16,6.41-.29,6-.55-.16-.1-2.16-.18-4.47-.18s-4.31-.08-4.47-.18c-.53-.33,1.18-.39,10.49-.41,8.63,0,14.04-.12,25-.63,2.53-.12,5.88-.24,7.45-.27,2.43-.04,2.94-.1,3.43-.43,.51-.35,.67-.37,1.24-.16,.76,.29,3.1,.31,4.31,.06,.59-.12,.67-.18,.29-.2-1.16-.04-2.86-.49-2.65-.69,.22-.22,1-.24,11.45-.18,8,.02,16.67-.18,22.55-.57,1.92-.12,5.16-.24,7.25-.27,3.25-.04,3.88-.1,4.47-.43,.63-.33,.82-.35,1.78-.12,1.16,.29,4.04,.18,6.04-.22,.59-.12,1.82-.29,2.71-.39s2.04-.29,2.55-.41c1.14-.27,10.47-.63,16.41-.65q4.45-.02,5.04-.59c.59-.57,.63-.59,1.35-.29,1.14,.47,1.67,.41,1.82-.27,.08-.31,.43-.88,.8-1.27,.78-.82,.76-.69,1.2-7.04,.35-4.67,.41-12.12,.12-14.69-.1-.9-.18-5.55-.18-10.33,0-7.02-.08-9.06-.35-10.59-.2-1.18-.27-2.37-.2-3.14,.31-2.94,.37-6.49,.2-11.55-.14-4.51-.2-5.1-.31-3.57-.08,1-.14,3.37-.16,5.22s-.08,3.84-.16,4.39c-.47,3.51-.55-2.37-.59-49.92-.04-27.33-.14-53.51-.27-58.17s-.27-10.76-.33-13.55c-.08-2.82-.18-5.2-.27-5.31-.06-.12-.14-.59-.14-1.06-.04-.96-.76-2.12-1.31-2.12-.18,0-.61,.27-.94,.61Zm-115.96,99.11c1.57,.14,2.18,.49,.86,.49-.84,0-.94,.35-.29,.94,.31,.27,.69,.37,1.35,.35,.63-.02,1.04,.08,1.27,.31,.18,.16,.73,.57,1.22,.9,.73,.47,1.04,.55,1.69,.45,.51-.08,.78-.06,.78,.1,0,.12-.14,.22-.31,.22-.53,0-.33,.37,.31,.59,.47,.14,.61,.33,.61,.71,0,.71,.8,1.55,1.63,1.73,.59,.12,.71,.24,.84,.82,.18,.88,.76,1.45,1.63,1.63,.55,.1,.69,.24,.82,.8,.14,.76,1.51,2.49,1.94,2.49,.18,0,.29-.22,.29-.71,0-.39,.08-.71,.18-.71,.31,0,.45,1,.2,1.41-.37,.57,.35,1.69,1.16,1.88,.88,.16,1.1,.35,1.1,.86,0,.63,.65,1.63,1.71,2.65,.88,.84,1.45,1.84,1.24,2.18-.22,.35,1.2,2.25,1.67,2.25,.24,0,.88,.9,.88,1.24,0,.27,1.37,1.61,1.65,1.61,.1,0,.33,.31,.49,.65,.16,.37,.73,1.27,1.22,1.98,.51,.73,.92,1.53,.92,1.84,0,.98,1.35,2.47,2.22,2.47,.45,0,.84,.55,.84,1.2,0,.24,.33,.78,.71,1.22,.39,.43,.71,.96,.71,1.18,0,.2,.14,.57,.31,.8,.16,.2,.31,.71,.31,1.1,0,.8,.8,1.84,1.39,1.84,.96,.02,1.94,1.8,1.73,3.18-.12,.98,.16,1.2,.67,.53,.24-.31,.29-.27,.22,.37-.04,.55,.04,.71,.37,.78,.57,.12,.73,.45,.59,1.2-.1,.57-.06,.69,.37,.86,.27,.1,.61,.33,.76,.51s.41,.33,.55,.33c.18,0,.29,.22,.29,.61s.14,.69,.41,.86c.24,.16,.41,.49,.41,.84,0,.73,.92,2.31,1.43,2.45,.22,.06,.47,.43,.63,.94,.14,.49,.37,.84,.55,.84,.22,0,.27,.18,.16,.8-.14,.9,.12,1.22,.61,.82,.41-.35,.63-.04,.31,.47-.29,.45-.14,.69,.49,.82,.35,.06,.41,.2,.35,1.04-.04,.78,0,.96,.27,.96,.78,0,2.14,1.49,2.14,2.35,0,.45,1.49,2.76,1.73,2.67,.12-.02,.24-.45,.31-.94,.08-.8,.12-.86,.39-.53,.16,.18,.22,.39,.16,.45s-.04,.35,.04,.65c.1,.31,.04,.9-.1,1.37-.14,.45-.31,1.06-.37,1.37-.12,.49-.22,.57-.86,.57-.45,0-.76,.12-.82,.31-.08,.16-.27,.31-.43,.31-.22,0-.27-.1-.16-.37,.45-1.02,.33-2.18-.14-1.71-.35,.35-.57,.31-.57-.14,0-.2-.41-.82-.94-1.37-.51-.55-1.06-1.16-1.22-1.35-.2-.2-.27-.49-.18-.78,.1-.31-.02-.69-.39-1.24-.63-.92-.94-.88-.94,.14,0,.39-.08,.69-.2,.69-.33,0-.8-1.29-.55-1.57,.35-.47-.02-1.59-.73-2.12-.35-.27-.84-.53-1.04-.59-.24-.06-.47-.39-.57-.78-.24-.92-1.14-1.88-1.76-1.88-.45,0-.49-.06-.37-.57,.31-1.2,.27-1.37-.31-1.33-.53,.02-.55,0-.45-.78,.1-.65,.02-.9-.35-1.31-.27-.29-.67-.51-.94-.51-.45,0-.69-.35-.69-1,0-.57-1.06-1.82-1.65-1.96-.47-.1-.55-.22-.53-.8,.02-.43-.14-.82-.43-1.1-.24-.24-.45-.71-.45-1.02,0-.71-.82-1.59-1.18-1.22-.24,.24-.9-.41-1.96-2.06-.35-.51-.69-1-.8-1.06-.16-.12-.27-.45-.78-2.53-.24-1.02-.73-1.61-1.51-1.88-.43-.14-.65-.41-.86-1.02-.35-1.04-.96-1.69-1.59-1.69-.33,0-.61-.22-.94-.78-.24-.41-.61-.9-.8-1.06s-1.1-1.27-2.04-2.45-1.88-2.31-2.08-2.51c-.31-.29-.33-.45-.16-.65,.31-.37,.06-.86-.27-.53-.35,.35-.49,.27-.61-.37-.08-.35-.29-.61-.53-.69-.31-.06-.43-.27-.43-.65,0-.37-.47-1.08-1.47-2.31-1.65-1.98-2.55-2.9-2.8-2.9-.1,0-.41-.37-.69-.8-.53-.8-4.35-4.69-5.67-5.8-.39-.31-1.47-1.18-2.43-1.98-.96-.78-1.98-1.65-2.29-1.94-.76-.73-1.67-1.33-3.27-2.1-1.12-.55-1.39-.78-1.49-1.29-.08-.39-.33-.69-.65-.82q-.49-.18-.14-.78c.39-.67,.27-1.24-.33-1.39-.51-.14-.53-.41-.04-.53,.55-.14,4.71-.16,6.43-.02Zm-7.04,1.22c.55,.37,.59,.69,.08,.69-.43,0-.86-.37-.86-.76,0-.35,.22-.33,.78,.06Zm-11.39,2.84c0,.18-.18,.31-.51,.31s-.51-.12-.51-.31,.18-.31,.51-.31,.51,.12,.51,.31Zm-17.14,20.02c0,.29-.1,.49-.22,.45s-.2-.14-.2-.22c.02-.08,.02-.29,.02-.45s.1-.31,.2-.31c.12,0,.2,.24,.2,.53Zm60.98,12.39c.04,.2-.06,.35-.24,.35-.2,0-.33-.18-.33-.43,0-.49,.47-.43,.57,.08Zm25.02,29.84c.06,.16,.35,.41,.63,.51,.45,.18,.51,.31,.51,1.29,0,1.33-.33,1.84-1.12,1.73-.43-.04-.63-.2-.78-.63-.27-.8,.02-3.2,.37-3.2,.14,0,.31,.14,.39,.31Zm-115.23,1.47c-.1,.51-.57,.57-.57,.08,0-.24,.12-.43,.33-.43,.18,0,.29,.14,.24,.35Zm118.7,4.39c.29,.82-.06,1.67-.69,1.76-.29,.04-.71,.16-.96,.29-.55,.27-.94,.02-.43-.27,.27-.14,.33-.35,.24-.8-.08-.33-.06-.84,0-1.12,.12-.47,.22-.53,.9-.47,.61,.04,.78,.16,.94,.61Zm61.55,.27c.39,.47-.02,.82-.59,.53-.49-.27-.55-.55-.16-.69,.41-.18,.49-.16,.76,.16Zm-58.49,1.22c.12,.35-.18,.59-.49,.41-.1-.06-.2-.31-.2-.51,0-.45,.51-.37,.69,.1Zm-.61,1.45c.39,1.04-.04,2.12-.86,2.12-.33,0-.67,.1-.82,.24-.29,.29-.55,.08-.33-.29,.08-.14,.14-.55,.1-.92-.1-1.16,.12-1.49,1-1.49,.51,0,.82,.1,.9,.33Zm1.69,1.14c.27,.24,.47,.55,.47,.71,0,.41-.57,.31-.71-.12-.06-.22-.24-.45-.41-.51s-.31-.2-.31-.33c0-.35,.45-.22,.96,.24Zm1.08,1.8c0,.33-.08,.61-.2,.61-.1,0-.2-.29-.2-.61,0-.35,.1-.61,.2-.61,.12,0,.2,.27,.2,.61Zm0,2.43c0,.49-.24,.65-.61,.43-.22-.14-.22-.22-.02-.49,.37-.45,.63-.41,.63,.06Zm59.19,1.33c0,.29-.1,.57-.2,.63-.27,.16-.49-.41-.33-.82,.18-.49,.53-.35,.53,.18Zm-30.04,3.1c.24,.04,.45,.18,.45,.29,0,.27-4.49,.27-4.9,0-.27-.16-.27-.2,0-.29,.76-.27,3.2-.27,4.45,0Z"/>
  <path d="M186,106.43c-.08,.1-.78,.14-1.55,.14-1.76-.04-2.63,.43-2.73,1.43-.06,.59-.14,.67-.71,.73-.35,.04-.76,.2-.88,.37-.14,.16-.61,.29-1.1,.29-.98,0-1.53,.49-1.86,1.63-.18,.63-.31,.71-.98,.78-1.04,.08-1.63,.86-1.47,1.9,.18,1.04-.65,2.43-1.49,2.43-1.14,0-1.45,.61-1.43,2.9,0,.96-.04,1.86-.12,1.98s-.41,.22-.73,.22c-.41,0-.67,.14-.84,.45-.14,.27-.39,.57-.55,.69-.24,.18-.29,.55-.14,2.14,.08,1.06,.27,2.29,.41,2.73,.16,.45,.24,1.14,.18,1.63-.1,.73-.04,.9,.57,1.53,.49,.51,.76,1,.86,1.61,.08,.49,.27,1.08,.43,1.31,.16,.24,.31,.57,.31,.76,0,.16,.55,.9,1.2,1.61,.67,.73,1.27,1.55,1.33,1.84,.14,.67,.84,1.16,1.92,1.35,.69,.1,.86,.08,.86-.16,0-.16-.14-.35-.31-.43-.16-.06-.31-.2-.31-.33,0-.37,.61-.22,.98,.24,1.69,2.1,2.02,2.35,3.71,2.73,2.29,.53,3,.76,4.37,1.43,1.37,.69,1.43,.69,4.2,.69s2.8,0,3.8-.8q1-.78,3.37-.88c3.18-.14,3.69-.43,3.9-2.2,.06-.43,.18-.53,.78-.57,.59-.06,1.02-.39,2.49-1.9,1.96-2,2.33-2.73,2.14-4.29-.1-.78-.06-1,.16-1,.18,0,.31,.29,.35,.82,.06,.94,.45,1.12,.53,.27,.02-.31,.24-1.35,.47-2.31,.51-2.08,.61-5.76,.22-8.47-.35-2.59-.41-2.73-.98-3-.67-.31-1.1-1.16-1.1-2.18s-.53-2.41-1.04-2.67c-.2-.12-.55-.2-.8-.2-.51,0-.82-.69-.94-2.2-.1-1.29-.55-2.04-1.29-2.2-.96-.2-1.04-.27-1.04-.76,0-.67-.35-.92-1.55-1.06q-1.04-.14-1.63,.71c-.33,.47-.8,1.12-1.06,1.43q-.47,.59,0,1.22c.24,.35,.69,.67,.98,.73,1.02,.22,1.04,.24,.98,1.14-.06,.86-.08,.88-1.04,1.12-.53,.12-1.12,.43-1.33,.65-.31,.35-.47,.39-1.57,.22-4.86-.69-9.45-.86-10.04-.39-.29,.24-.37,.22-.55-.1-.12-.2-.57-.82-.98-1.35q-.78-.96,.08-1.1c.47-.08,1.18-.31,1.57-.51,.41-.22,1.8-.9,3.12-1.53,2.02-.98,2.55-1.14,3.53-1.14,1.24,0,1.94-.24,1.94-.71,0-.37-1.37-.96-1.86-.82-.2,.06-.65-.02-1.02-.22-.69-.35-4.45-.65-4.71-.39Zm-3.18,7.35c.31,.18,.61,.55,.67,.78,.08,.24,.22,.65,.35,.88,.29,.61-.29,1.43-1.2,1.73-.65,.2-.78,.18-1.06-.18-.18-.22-.55-.49-.84-.55-.29-.08-.84-.41-1.22-.73q-.71-.61-.29-1.37c.24-.43,.76-.92,1.16-1.1,.39-.2,.8-.47,.88-.59,.1-.18,.29-.1,.57,.27,.24,.29,.67,.67,.98,.88Zm3.59,1.98c.08,.39-.59,.65-1.18,.47-.57-.18-.51-.45,.16-.67,.67-.27,.94-.2,1.02,.2Zm-9.14,1.16c0,.12-.08,.27-.2,.33-.1,.06-.2,.57-.2,1.14s-.1,1-.2,1c-.27,0-.63-.92-.51-1.27,.41-1.16,.53-1.39,.82-1.39,.16,0,.31,.08,.31,.18Zm-2.08,5.41c.04,.2-.02,.47-.14,.59-.33,.33-.9-.29-.71-.76,.16-.45,.78-.35,.86,.16Z"/>
  <path d="M248.88,313.16c-.08,.08-.92,.16-1.86,.2-2.06,.08-2.61,.33-2.61,1.12q0,.57-2.27,.67c-1.24,.06-4.22,.06-6.61,0q-4.37-.1-4.57,.45c-.16,.41-.35,.53-.84,.53-.35,0-.84-.14-1.1-.31-.92-.61-3.76,.37-3.65,1.27,.04,.37-.1,.45-1.02,.55-2.27,.27-8.51,.59-10.41,.55-1.1-.04-2.96,.06-4.12,.18-1.82,.22-2.12,.33-2.22,.65-.12,.49-.57,.29-.49-.2,.06-.31-.29-.35-3.61-.35-4.06,.02-5.33,.24-5.14,.94,.08,.29-.02,.41-.33,.49-.98,.18-4.59,.35-9.53,.41-2.86,.04-6.12,.16-7.25,.27-1.12,.12-2.53,.14-3.12,.06-.61-.08-4.1-.06-7.76,.04-3.67,.12-7.55,.22-8.61,.22s-10.25-.02-20.41-.04c-18.39-.04-29.31,.18-30.55,.59-.37,.12-.67,.33-.67,.47,0,.37-7.47,.47-21.53,.33-9.59-.12-11.12-.18-11.76-.47-1.65-.73-8.71-.96-16.82-.53-2.98,.16-4.51,.33-5,.55-.57,.24-2.02,.33-7.18,.43-3.55,.08-6.53,.2-6.61,.29s.35,.14,.96,.14c1.22,0,2.02,.16,2.02,.41,0,.2-3.47,.45-6.51,.49q-2.16,.02-2.16,.63c0,.61,.02,.61,1.1,.61,1.02,0,1.12,.04,1.24,.49,.08,.37,.31,.55,.82,.67,.39,.1,1.08,.35,1.53,.55,1.45,.65,2.33,.88,3.33,.8,.86-.06,.96-.02,.92,.35-.04,.53,.33,.73,1.06,.59,.49-.1,.57-.08,.37,.14-.39,.39-.33,.51,.47,.98,.49,.29,1.06,.43,1.84,.43,.96,0,1.14,.06,1.33,.45,.45,1,1,1.18,3.69,1.24,1.39,.04,3.65,.2,5.04,.33,1.78,.18,4.73,.22,10.1,.14,4.16-.08,8.08-.12,8.69-.12,4.49,.04,4.94,0,6.25-.41,1.65-.51,4.18-.57,4.57-.1,.2,.27,1.06,.31,5.2,.31,4.96,0,6.31-.1,6.1-.43-.06-.1-2-.18-4.33-.18s-4.35-.08-4.51-.18c-.47-.31,1.78-.41,11.31-.51,8.08-.1,16.88-.24,36.43-.63,3.53-.08,8.12-.14,10.2-.16,3.63-.04,3.8-.06,4.47-.53,.63-.45,.73-.47,1.33-.22,.71,.33,4.12,.51,5.22,.31,.61-.12,.65-.18,.31-.31-.22-.1-1.12-.18-1.98-.18-1.43-.02-2.08-.22-1.63-.51,.1-.06,3.86-.16,8.33-.2,7.55-.1,10.94-.24,17.02-.73,1.29-.1,3.06-.18,3.94-.18,1.31,0,1.67-.08,2.12-.43,.49-.39,.55-.39,.9-.08,.31,.27,.59,.31,1.55,.16q1.18-.14,.27-.35c-1.43-.29-1.53-.33-1.29-.57,.14-.14,1.1-.18,2.63-.14,3.45,.12,12.45-.18,16.31-.55,1.8-.16,3.8-.33,4.43-.37,.71-.04,1.33-.2,1.55-.41,.24-.22,.45-.27,.65-.14,.35,.22,1.9,.27,2.61,.06,.73-.18,.12-.47-1.02-.47-.53,0-1.02-.1-1.08-.2-.24-.41,.84-.59,2.27-.37,.78,.1,1.59,.2,1.82,.18,1.14-.02,7.45-.45,8.16-.53,.45-.06,2.02-.27,3.47-.45,2.71-.33,3.71-.67,4.41-1.55,.31-.37,.63-.41,3.57-.47,2.45-.04,3.63-.16,4.88-.47,.9-.22,2.14-.43,2.76-.43,.88,0,1.31-.12,1.9-.51,.82-.57,.88-.69,.51-1.1-.22-.22-.02-.24,1.16-.1,2.27,.29,4.82,.12,5.73-.33,.43-.22,.98-.41,1.22-.41,.59,0,1.37-1.08,1.37-1.88,0-1.35-1.27-1.78-5.78-1.94-1.86-.06-3.43-.04-3.49,.02Zm8.06,2.39c-.14,.27-.63,.22-.82-.04-.18-.33,.37-.61,.67-.35,.14,.12,.2,.29,.14,.39Zm-11.35,2.78c-.1,.51-.57,.57-.57,.08,0-.24,.12-.43,.33-.43,.18,0,.29,.14,.24,.35Zm-87.19,3.18c.51,.49-2,.76-4.04,.43-.96-.16-1-.43-.1-.55,.88-.14,3.98-.04,4.14,.12Zm-15.16,.51c6.25,.18,3.22,.43-6.29,.49-12.98,.08-21.84-.02-21.61-.24,.29-.29,20.82-.47,27.9-.24Zm-100.84,3.86c.31,.31,.57,.67,.57,.82,0,.37-.59,.33-.76-.06-.06-.16-.33-.41-.59-.49-.33-.12-.45-.31-.37-.51,.18-.45,.49-.39,1.14,.24Z"/>
  <path d="M242.37,313.77c-1.04,.37-.94,.84,.18,.84,.63,0,.96-.1,1.12-.37,.16-.29,.16-.41-.08-.55-.37-.24-.33-.24-1.22,.08Z"/>
  <path d="M33.66,323.59c-.16,.41,.08,.71,.53,.71,.41,0,.9-.65,.67-.9-.24-.24-1.1-.12-1.2,.18Z"/>
</svg>